<svg width="16" height="16" viewBox="0 0 16 16" fill="none" xmlns="http://www.w3.org/2000/svg">
<path d="M1.43753 11.5152C1.43753 11.9503 1.61038 12.3676 1.91806 12.6753C2.22574 12.983 2.64303 13.1558 3.07816 13.1558H12.9219C13.357 13.1558 13.7743 12.983 14.082 12.6753C14.3897 12.3676 14.5625 11.9503 14.5625 11.5152V7.00348H1.43753V11.5152ZM3.37112 9.28864C3.37112 9.05553 3.46372 8.83198 3.62855 8.66715C3.79338 8.50233 4.01693 8.40973 4.25003 8.40973H5.65628C5.88938 8.40973 6.11293 8.50233 6.27776 8.66715C6.44259 8.83198 6.53519 9.05553 6.53519 9.28864V9.87457C6.53519 10.1077 6.44259 10.3312 6.27776 10.4961C6.11293 10.6609 5.88938 10.7535 5.65628 10.7535H4.25003C4.01693 10.7535 3.79338 10.6609 3.62855 10.4961C3.46372 10.3312 3.37112 10.1077 3.37112 9.87457V9.28864Z" 
fill="currentColor"/>
<path d="M12.9219 2.84296H3.07816C2.64303 2.84296 2.22574 3.01581 1.91806 3.32348C1.61038 3.63116 1.43753 4.04846 1.43753 4.48358V5.2453H14.5625V4.48358C14.5625 4.04846 14.3897 3.63116 14.082 3.32348C13.7743 3.01581 13.357 2.84296 12.9219 2.84296Z" fill="currentColor"/>
</svg>
