<svg width="16" height="16" viewBox="0 0 16 16" fill="none" xmlns="http://www.w3.org/2000/svg">
<g clip-path="url(#clip0_580_2998)">
<path d="M3.54694 15.0316H2.60944C2.42296 15.0316 2.24411 14.9575 2.11225 14.8256C1.98039 14.6938 1.90631 14.5149 1.90631 14.3284V10.1097C1.90631 9.9232 1.98039 9.74436 2.11225 9.6125C2.24411 9.48063 2.42296 9.40656 2.60944 9.40656H3.54694C3.73342 9.40656 3.91226 9.48063 4.04412 9.6125C4.17598 9.74436 4.25006 9.9232 4.25006 10.1097V14.3284C4.25006 14.5149 4.17598 14.6938 4.04412 14.8256C3.91226 14.9575 3.73342 15.0316 3.54694 15.0316V15.0316Z" fill="currentColor"/>
<path d="M10.1095 15.0308H9.17197C8.98549 15.0308 8.80664 14.9567 8.67478 14.8248C8.54292 14.693 8.46884 14.5141 8.46884 14.3276V7.29639C8.46884 7.10991 8.54292 6.93106 8.67478 6.7992C8.80664 6.66734 8.98549 6.59326 9.17197 6.59326H10.1095C10.2959 6.59326 10.4748 6.66734 10.6066 6.7992C10.7385 6.93106 10.8126 7.10991 10.8126 7.29639V14.3276C10.8126 14.5141 10.7385 14.693 10.6066 14.8248C10.4748 14.9567 10.2959 15.0308 10.1095 15.0308V15.0308Z" fill="currentColor"/>
<path d="M13.3907 15.0311H12.4532C12.2667 15.0311 12.0879 14.957 11.956 14.8252C11.8241 14.6933 11.7501 14.5145 11.7501 14.328V4.0155C11.7501 3.82902 11.8241 3.65018 11.956 3.51832C12.0879 3.38646 12.2667 3.31238 12.4532 3.31238H13.3907C13.5772 3.31238 13.756 3.38646 13.8879 3.51832C14.0197 3.65018 14.0938 3.82902 14.0938 4.0155V14.328C14.0938 14.5145 14.0197 14.6933 13.8879 14.8252C13.756 14.957 13.5772 15.0311 13.3907 15.0311V15.0311Z" fill="currentColor"/>
<path d="M6.8282 15.0309H5.8907C5.70422 15.0309 5.52538 14.9569 5.39352 14.825C5.26166 14.6931 5.18758 14.5143 5.18758 14.3278V1.67157C5.18758 1.48509 5.26166 1.30625 5.39352 1.17439C5.52538 1.04252 5.70422 0.968445 5.8907 0.968445H6.8282C7.01468 0.968445 7.19352 1.04252 7.32539 1.17439C7.45725 1.30625 7.53133 1.48509 7.53133 1.67157V14.3278C7.53133 14.5143 7.45725 14.6931 7.32539 14.825C7.19352 14.9569 7.01468 15.0309 6.8282 15.0309V15.0309Z" fill="currentColor"/>
</g>
<defs>
<clipPath id="clip0_580_2998">
<rect width="15" height="15" fill="white" transform="translate(0.500092 0.499939)"/>
</clipPath>
</defs>
</svg>
