<svg width="12" height="12" viewBox="0 0 12 12" fill="none" xmlns="http://www.w3.org/2000/svg">
<path d="M6.16289 0.467478C6.11927 0.425753 6.06124 0.402466 6.00088 0.402466C5.94052 0.402466 5.88248 0.425753 5.83887 0.467478L0.445312 5.61992C0.422407 5.64183 0.404184 5.66816 0.391746 5.69731C0.379308 5.72647 0.372913 5.75785 0.372949 5.78955L0.37207 10.6253C0.37207 10.8739 0.470842 11.1124 0.646658 11.2882C0.822473 11.464 1.06093 11.5628 1.30957 11.5628H4.125C4.24932 11.5628 4.36855 11.5134 4.45645 11.4255C4.54436 11.3376 4.59375 11.2184 4.59375 11.094V7.10966C4.59375 7.0475 4.61844 6.98789 4.6624 6.94393C4.70635 6.89998 4.76596 6.87529 4.82812 6.87529H7.17187C7.23403 6.87529 7.29365 6.89998 7.3376 6.94393C7.38155 6.98789 7.40625 7.0475 7.40625 7.10966V11.094C7.40625 11.2184 7.45563 11.3376 7.54354 11.4255C7.63145 11.5134 7.75068 11.5628 7.875 11.5628H10.6893C10.9379 11.5628 11.1764 11.464 11.3522 11.2882C11.528 11.1124 11.6268 10.8739 11.6268 10.6253V5.78955C11.6268 5.75785 11.6204 5.72647 11.608 5.69731C11.5955 5.66816 11.5773 5.64183 11.5544 5.61992L6.16289 0.467478Z" 
fill="currentColor"/>
</svg>
