<svg width="16" height="16" viewBox="0 0 16 16" fill="none" xmlns="http://www.w3.org/2000/svg">
<path d="M14.4934 1.62154C14.4881 1.59562 14.4755 1.57178 14.457 1.55278C14.4386 1.53379 14.4152 1.52045 14.3894 1.51431C12.6735 1.09478 8.70877 2.5898 6.56073 4.73696C6.1776 5.11699 5.82833 5.52968 5.51688 5.97036C4.85448 5.91177 4.19207 5.96069 3.62752 6.20679C2.03465 6.90786 1.57088 8.73716 1.44168 9.52407C1.43436 9.56714 1.43712 9.61133 1.44976 9.65315C1.4624 9.69497 1.48457 9.73329 1.51453 9.76509C1.54448 9.79689 1.58141 9.82131 1.6224 9.83643C1.66339 9.85154 1.70733 9.85694 1.75077 9.8522L4.30868 9.57007C4.3105 9.76292 4.32214 9.95555 4.34354 10.1472C4.35641 10.2803 4.41549 10.4047 4.51053 10.4988L5.50106 11.487C5.59522 11.5819 5.71956 11.6409 5.85262 11.654C6.04322 11.6753 6.23477 11.6869 6.42655 11.6888L6.14588 14.2435C6.1412 14.2869 6.14664 14.3308 6.16178 14.3718C6.17691 14.4128 6.20133 14.4497 6.23312 14.4796C6.26491 14.5095 6.3032 14.5317 6.34499 14.5444C6.38679 14.557 6.43095 14.5598 6.47401 14.5526C7.25946 14.4266 9.09197 13.9628 9.78895 12.37C10.035 11.8054 10.0854 11.1462 10.0286 10.4871C10.4703 10.1756 10.8841 9.82622 11.2652 9.44292C13.42 7.29897 14.9065 3.42271 14.4934 1.62154ZM9.11541 6.8853C8.91865 6.68867 8.78463 6.4381 8.73029 6.16529C8.67596 5.89248 8.70375 5.60968 8.81016 5.35267C8.91657 5.09566 9.09681 4.87598 9.32809 4.72142C9.55936 4.56686 9.83129 4.48436 10.1095 4.48436C10.3876 4.48436 10.6595 4.56686 10.8908 4.72142C11.1221 4.87598 11.3023 5.09566 11.4087 5.35267C11.5152 5.60968 11.5429 5.89248 11.4886 6.16529C11.4343 6.4381 11.3003 6.68867 11.1035 6.8853C10.973 7.01596 10.8181 7.11962 10.6475 7.19034C10.4769 7.26106 10.2941 7.29746 10.1095 7.29746C9.92481 7.29746 9.74197 7.26106 9.5714 7.19034C9.40084 7.11962 9.24588 7.01596 9.11541 6.8853Z" 
fill="currentColor"/>
<path d="M5.43371 12.2027C5.27317 12.3636 5.01565 12.4263 4.70569 12.4799C4.0093 12.5985 3.39436 11.9968 3.51946 11.2928C3.56721 11.0259 3.70842 10.6517 3.79631 10.5639C3.81552 10.545 3.82831 10.5206 3.83286 10.4941C3.8374 10.4676 3.83348 10.4403 3.82164 10.4161C3.8098 10.392 3.79065 10.3721 3.76691 10.3595C3.74317 10.3468 3.71604 10.342 3.68938 10.3456C3.29995 10.3932 2.93766 10.5698 2.66018 10.8472C1.97141 11.5365 1.90637 14.0944 1.90637 14.0944C1.90637 14.0944 4.46575 14.0294 5.15452 13.34C5.43274 13.0628 5.60952 12.6999 5.65637 12.3099C5.66721 12.1875 5.51809 12.1145 5.43371 12.2027Z" fill="currentColor"/>
</svg>
