<svg width="16" height="16" viewBox="0 0 16 16" fill="currentColor" xmlns="http://www.w3.org/2000/svg">
<path d="M14.2568 4.0313C14.223 3.96565 14.1742 3.9089 14.1144 3.86568C14.0546 3.82245 13.9854 3.79397 13.9124 3.78254C13.8395 3.77112 13.7649 3.77708 13.6947 3.79995C13.6245 3.82281 13.5607 3.86192 13.5085 3.91411L11.7085 5.71528C11.6202 5.80236 11.5011 5.85117 11.377 5.85117C11.253 5.85117 11.1339 5.80236 11.0455 5.71528L10.2674 4.93598C10.2239 4.89245 10.1893 4.84078 10.1658 4.7839C10.1422 4.72702 10.1301 4.66606 10.1301 4.60449C10.1301 4.54292 10.1422 4.48196 10.1658 4.42508C10.1893 4.3682 10.2239 4.31652 10.2674 4.273L12.0598 2.48032C12.1135 2.4266 12.1534 2.36061 12.176 2.28806C12.1985 2.21551 12.2031 2.13855 12.1893 2.06383C12.1756 1.98911 12.1438 1.91885 12.0969 1.85912C12.0499 1.79939 11.9891 1.75197 11.9198 1.72095C10.566 1.11567 8.87611 1.43149 7.81059 2.48911C6.90531 3.38794 6.63549 4.79243 7.07084 6.34253C7.09431 6.42519 7.09445 6.51273 7.07123 6.59547C7.04801 6.6782 7.00235 6.75289 6.9393 6.81128L2.06196 11.2659C1.87195 11.4365 1.71869 11.644 1.61152 11.8758C1.50436 12.1075 1.44554 12.3587 1.43864 12.614C1.43175 12.8693 1.47693 13.1232 1.57143 13.3605C1.66593 13.5977 1.80777 13.8132 1.9883 13.9938C2.16882 14.1744 2.38425 14.3163 2.62143 14.4109C2.85862 14.5055 3.11259 14.5508 3.36785 14.5441C3.62312 14.5373 3.87433 14.4786 4.10616 14.3715C4.33798 14.2644 4.54557 14.1113 4.71625 13.9213L9.21859 9.03315C9.27614 8.97091 9.34957 8.92555 9.43098 8.90196C9.51239 8.87836 9.5987 8.87743 9.68061 8.89926C10.1219 9.02018 10.5771 9.08292 11.0347 9.08588C12.0132 9.08588 12.8719 8.76919 13.4912 8.15893C14.6382 7.02895 14.8131 5.11235 14.2568 4.0313ZM3.41518 13.6005C3.22223 13.6216 3.0275 13.5822 2.85786 13.4879C2.68823 13.3936 2.55205 13.249 2.46812 13.0739C2.3842 12.8989 2.35666 12.7022 2.38931 12.5108C2.42197 12.3195 2.5132 12.143 2.65042 12.0058C2.78764 11.8685 2.96409 11.7772 3.15541 11.7445C3.34673 11.7118 3.54348 11.7392 3.71852 11.8231C3.89357 11.907 4.03826 12.0431 4.13265 12.2127C4.22703 12.3823 4.26644 12.577 4.24545 12.77C4.22235 12.9823 4.12746 13.1803 3.97648 13.3314C3.8255 13.4824 3.62748 13.5774 3.41518 13.6005Z" fill="currentColor"/>
</svg>
