<svg className='w-4 h-4' viewBox="0 0 28 28" fill="none" xmlns="http://www.w3.org/2000/svg">
    <path
        d="M26.3087 0.290307L20.2044 6.39462C18.203 5.49399 16.1015 4.99363 14 4.99363C9.09653 4.99363 4.29314 7.59547 0.990802 12.1987C0.190236 13.2995 0.190236 14.7005 0.990802 15.8013C2.39179 17.7026 4.093 19.3037 5.99434 20.6047L0.290307 26.3087C-0.61033 27.2093 0.790661 28.6103 1.6913 27.7097L7.79561 21.6054C9.69696 22.506 11.7984 23.0064 14 23.0064C19.0035 23.0064 23.7069 20.4045 27.0092 15.8013C27.8098 14.7005 27.8098 13.2995 27.0092 12.1987C25.6082 10.2974 23.907 8.69625 22.0057 7.39533L27.7097 1.6913C28.6103 0.790661 27.2093 -0.61033 26.3087 0.290307ZM2.59193 14.6004C2.29172 14.2001 2.29172 13.6998 2.59193 13.3996C5.59406 9.29667 9.59689 6.99505 14 6.99505C15.6011 6.99505 17.2023 7.29526 18.7033 7.89568L16.802 9.79703C14.5004 8.29597 11.3982 8.89639 9.8971 11.198C8.79632 12.8992 8.79632 15.0007 9.8971 16.7019L7.4954 19.1036C5.49399 18.0028 3.89285 16.4017 2.59193 14.6004ZM12.6991 16.7019L16.7019 12.6991C17.4024 14.2001 16.802 16.0014 15.3009 16.7019C14.5004 17.1022 13.4996 17.1022 12.6991 16.7019ZM15.3009 11.2981L11.2981 15.3009C10.5976 13.7999 11.198 11.9986 12.6991 11.2981C13.4996 10.8978 14.5004 10.8978 15.3009 11.2981ZM25.4081 13.3996C25.7083 13.7999 25.7083 14.3002 25.4081 14.6004C22.4059 18.7033 18.4031 21.005 14 21.005C12.3989 21.005 10.7977 20.7047 9.29667 20.1043L11.198 18.203C13.4996 19.704 16.6018 19.1036 18.1029 16.802C19.2037 15.1008 19.2037 12.9993 18.1029 11.2981L20.5046 8.89639C22.506 9.99717 24.1071 11.5983 25.4081 13.3996Z"
        fill="currentColor" />
</svg>